<svg width="104" height="117" viewBox="0 0 104 117" fill="none" xmlns="http://www.w3.org/2000/svg">
<path d="M53.9827 -1.45152e-05V114.685H26.3194V25.8714H25.6474L-4.62197e-07 41.551V17.5836L28.2793 -1.45152e-05H53.9827ZM89.1079 116.309C85.076 116.309 81.6228 114.891 78.7482 112.053C75.9109 109.216 74.5109 105.782 74.5483 101.75C74.5109 97.7924 75.9109 94.4138 78.7482 91.6138C81.6228 88.7766 85.076 87.3579 89.1079 87.3579C92.9158 87.3579 96.2757 88.7766 99.1877 91.6138C102.137 94.4138 103.63 97.7924 103.668 101.75C103.63 104.438 102.921 106.883 101.54 109.085C100.196 111.288 98.4224 113.043 96.2197 114.349C94.0545 115.656 91.6839 116.309 89.1079 116.309Z" fill="#DC7800" fill-opacity="0.86"/>
</svg>
