<svg width="133" height="118" viewBox="0 0 133 118" fill="none" xmlns="http://www.w3.org/2000/svg">
<path d="M1.67996 116.253V96.3176L43.511 59.6945C46.6469 56.8572 49.3162 54.2626 51.5188 51.9107C53.7214 49.5214 55.4014 47.1321 56.5587 44.7428C57.716 42.3162 58.2946 39.6843 58.2946 36.847C58.2946 33.6738 57.604 30.9672 56.2227 28.7272C54.8414 26.4499 52.9374 24.6953 50.5108 23.4633C48.0842 22.2314 45.3029 21.6154 42.167 21.6154C38.9938 21.6154 36.2125 22.2687 33.8232 23.5753C31.4339 24.8446 29.5673 26.6926 28.2233 29.1192C26.9167 31.5458 26.2634 34.4951 26.2634 37.967H5.96046e-08C5.96046e-08 30.1645 1.75463 23.426 5.26388 17.7515C8.77313 12.0769 13.701 7.70905 20.0475 4.64778C26.4314 1.54919 33.8419 -0.000107551 42.279 -0.000107551C50.9775 -0.000107551 58.5373 1.45586 64.9585 4.36779C71.3797 7.27972 76.3449 11.349 79.8541 16.5755C83.4007 21.7647 85.174 27.7939 85.174 34.6631C85.174 39.031 84.2967 43.3615 82.5421 47.6548C80.7874 51.948 77.6329 56.6892 73.0783 61.8784C68.5611 67.0677 62.1399 73.2835 53.8147 80.526L40.0951 93.1817V93.9097H86.574V116.253H1.67996ZM117.863 117.877C113.831 117.877 110.378 116.459 107.503 113.621C104.666 110.784 103.266 107.349 103.304 103.317C103.266 99.3602 104.666 95.9816 107.503 93.1817C110.378 90.3444 113.831 88.9258 117.863 88.9258C121.671 88.9258 125.031 90.3444 127.943 93.1817C130.892 95.9816 132.386 99.3602 132.423 103.317C132.386 106.005 131.676 108.451 130.295 110.653C128.951 112.856 127.178 114.611 124.975 115.917C122.81 117.224 120.439 117.877 117.863 117.877Z" fill="#DC7800" fill-opacity="0.86"/>
</svg>
