<svg width="134" height="118" viewBox="0 0 134 118" fill="none" xmlns="http://www.w3.org/2000/svg">
<path d="M45.0789 117.821C36.3431 117.821 28.5967 116.328 21.8395 113.341C15.1196 110.317 9.81844 106.155 5.93586 100.854C2.05329 95.5523 0.0746648 89.4485 -2.17265e-08 82.542H27.8873C27.9993 85.0432 28.802 87.2645 30.2953 89.2058C31.7886 91.1098 33.8232 92.6031 36.3991 93.6857C38.9751 94.7683 41.9057 95.3097 45.1909 95.3097C48.4762 95.3097 51.3695 94.731 53.8707 93.5737C56.4093 92.3791 58.388 90.7551 59.8066 88.7018C61.2252 86.6112 61.9159 84.2219 61.8786 81.534C61.9159 78.846 61.1506 76.4568 59.5826 74.3662C58.0146 72.2755 55.7934 70.6516 52.9188 69.4943C50.0815 68.337 46.7216 67.7583 42.839 67.7583H31.6953V48.0468H42.839C46.2363 48.0468 49.2229 47.4868 51.7988 46.3668C54.4121 45.2468 56.4467 43.6789 57.9026 41.6629C59.3586 39.6096 60.0679 37.2577 60.0306 34.6071C60.0679 32.0311 59.4519 29.7725 58.1826 27.8312C56.9507 25.8526 55.2147 24.322 52.9748 23.2394C50.7721 22.1567 48.2149 21.6154 45.3029 21.6154C42.2417 21.6154 39.4604 22.1567 36.9591 23.2394C34.4952 24.322 32.5352 25.8526 31.0793 27.8312C29.6233 29.8099 28.858 32.1058 28.7833 34.7191H2.29595C2.37061 27.8872 4.27457 21.8767 8.00781 16.6875C11.7411 11.461 16.8183 7.37305 23.2395 4.42379C29.698 1.47453 37.0525 -0.000107551 45.3029 -0.000107551C53.5161 -0.000107551 60.7399 1.43719 66.9744 4.31179C73.209 7.18639 78.0622 11.1063 81.5341 16.0715C85.006 20.9994 86.742 26.5806 86.742 32.8151C86.7793 39.2736 84.67 44.5935 80.4141 48.7748C76.1955 52.956 70.7637 55.5319 64.1185 56.5026V57.3986C73.0036 58.4439 79.7048 61.3185 84.222 66.0223C88.7766 70.7262 91.0352 76.6061 90.9979 83.6619C90.9979 90.3071 89.0379 96.2056 85.118 101.358C81.2354 106.472 75.8222 110.504 68.8784 113.453C61.9719 116.365 54.0387 117.821 45.0789 117.821ZM119.025 117.877C114.993 117.877 111.54 116.459 108.665 113.621C105.828 110.784 104.428 107.349 104.466 103.317C104.428 99.3602 105.828 95.9816 108.665 93.1817C111.54 90.3444 114.993 88.9258 119.025 88.9258C122.833 88.9258 126.193 90.3444 129.105 93.1817C132.054 95.9816 133.548 99.3602 133.585 103.317C133.548 106.005 132.838 108.451 131.457 110.653C130.113 112.856 128.34 114.611 126.137 115.917C123.972 117.224 121.601 117.877 119.025 117.877Z" fill="#DC7800" fill-opacity="0.86"/>
</svg>
