<svg width="142" height="142" viewBox="0 0 142 142" fill="none" xmlns="http://www.w3.org/2000/svg">
<path d="M103.769 0H38.2308C28.0947 0.0108427 18.3768 4.0422 11.2095 11.2095C4.0422 18.3768 0.0108427 28.0947 0 38.2308V103.769C0.0108427 113.905 4.0422 123.623 11.2095 130.79C18.3768 137.958 28.0947 141.989 38.2308 142H103.769C113.905 141.989 123.623 137.958 130.79 130.79C137.958 123.623 141.989 113.905 142 103.769V38.2308C141.989 28.0947 137.958 18.3768 130.79 11.2095C123.623 4.0422 113.905 0.0108427 103.769 0ZM71 103.769C64.5189 103.769 58.1833 101.847 52.7944 98.2466C47.4055 94.6459 43.2054 89.528 40.7252 83.5402C38.245 77.5524 37.596 70.9636 38.8604 64.607C40.1248 58.2504 43.2458 52.4115 47.8287 47.8287C52.4115 43.2458 58.2504 40.1248 64.607 38.8604C70.9636 37.596 77.5524 38.245 83.5402 40.7252C89.528 43.2054 94.6459 47.4055 98.2466 52.7944C101.847 58.1833 103.769 64.5189 103.769 71C103.76 79.6882 100.305 88.0179 94.1614 94.1614C88.0179 100.305 79.6882 103.76 71 103.769ZM111.962 38.2308C110.341 38.2308 108.757 37.7503 107.41 36.8501C106.063 35.9499 105.013 34.6705 104.393 33.1735C103.773 31.6766 103.611 30.0294 103.927 28.4402C104.243 26.8511 105.023 25.3913 106.169 24.2456C107.314 23.0999 108.774 22.3197 110.363 22.0036C111.952 21.6875 113.6 21.8497 115.097 22.4698C116.594 23.0898 117.873 24.1398 118.773 25.4871C119.673 26.8343 120.154 28.4182 120.154 30.0385C120.154 32.2112 119.291 34.2949 117.754 35.8313C116.218 37.3677 114.134 38.2308 111.962 38.2308ZM92.8462 71C92.8462 75.3208 91.5649 79.5445 89.1644 83.1371C86.7639 86.7296 83.352 89.5297 79.3602 91.1832C75.3683 92.8367 70.9758 93.2693 66.738 92.4264C62.5003 91.5834 58.6077 89.5028 55.5524 86.4476C52.4972 83.3923 50.4165 79.4997 49.5736 75.262C48.7307 71.0242 49.1633 66.6317 50.8168 62.6398C52.4703 58.648 55.2703 55.2361 58.8629 52.8356C62.4555 50.4351 66.6792 49.1538 71 49.1538C76.794 49.1538 82.3506 51.4555 86.4476 55.5524C90.5445 59.6494 92.8462 65.206 92.8462 71Z" fill="url(#paint0_linear_50_103)"/>
<defs>
<linearGradient id="paint0_linear_50_103" x1="186.167" y1="-33.6512" x2="-26.5953" y2="212.22" gradientUnits="userSpaceOnUse">
<stop stop-color="#D72A98"/>
<stop offset="1" stop-color="#FFC110"/>
</linearGradient>
</defs>
</svg>
