<svg width="45" height="43" viewBox="0 0 45 43" fill="none" xmlns="http://www.w3.org/2000/svg">
<path d="M44.4382 16.1802C44.2391 15.568 43.8632 15.0284 43.3579 14.6294C42.8526 14.2304 42.2405 13.9899 41.5988 13.9381L29.8507 12.9903L25.3147 2.02079C25.0694 1.42307 24.6519 0.91179 24.1153 0.55196C23.5787 0.192129 22.9471 0 22.301 0C21.6549 0 21.0234 0.192129 20.4868 0.55196C19.9502 0.91179 19.5327 1.42307 19.2874 2.02079L14.7554 12.9883L3.00131 13.9381C2.3585 13.9925 1.74604 14.2354 1.24064 14.6363C0.735242 15.0372 0.359394 15.5783 0.160185 16.1919C-0.0390238 16.8055 -0.0527349 17.4642 0.12077 18.0855C0.294274 18.7068 0.647279 19.2632 1.13555 19.6847L10.096 27.4166L7.36603 38.9775C7.2154 39.6052 7.25419 40.2635 7.47749 40.8691C7.70079 41.4748 8.09858 42.0007 8.62061 42.3804C9.14264 42.7601 9.7655 42.9765 10.4105 43.0024C11.0555 43.0283 11.6937 42.8625 12.2445 42.5258L22.3 36.3372L32.3616 42.5258C32.9123 42.8605 33.5497 43.0248 34.1936 42.998C34.8375 42.9711 35.4591 42.7544 35.98 42.375C36.5009 41.9956 36.898 41.4706 37.1211 40.866C37.3443 40.2614 37.3836 39.6044 37.2341 38.9775L34.4942 27.4146L43.4546 19.6828C43.9468 19.2619 44.303 18.7043 44.4781 18.0808C44.6533 17.4573 44.6394 16.7958 44.4382 16.1802ZM41.3837 17.2694L31.6866 25.6325C31.4654 25.8231 31.3009 26.0708 31.211 26.3486C31.1211 26.6263 31.1093 26.9235 31.1768 27.2075L34.1397 39.7123C34.1474 39.7295 34.1482 39.749 34.1419 39.7668C34.1356 39.7846 34.1227 39.7993 34.1059 39.8078C34.07 39.8357 34.0601 39.8297 34.0302 39.8078L23.1344 33.1074C22.8831 32.9542 22.5943 32.8736 22.3 32.8745V3.18565C22.3478 3.18565 22.3538 3.20158 22.3697 3.23742L27.278 15.105C27.3901 15.3762 27.5749 15.6113 27.8121 15.7842C28.0492 15.957 28.3296 16.061 28.6221 16.0847L41.3479 17.1121C41.3797 17.1121 41.3977 17.1121 41.4156 17.1699C41.4335 17.2276 41.4156 17.2495 41.3837 17.2694Z" fill="#FCDA42"/>
</svg>
