<svg width="45" height="44" viewBox="0 0 45 44" fill="none" xmlns="http://www.w3.org/2000/svg">
<path d="M43.4749 19.6905L34.51 27.4262L37.2413 38.9948C37.392 39.6228 37.3532 40.2814 37.1298 40.8874C36.9064 41.4933 36.5084 42.0195 35.9861 42.3994C35.4638 42.7792 34.8407 42.9958 34.1954 43.0217C33.55 43.0476 32.9115 42.8817 32.3605 42.5449L22.2999 36.3532L12.2334 42.5449C11.6824 42.8798 11.0447 43.0441 10.4005 43.0173C9.75626 42.9904 9.13441 42.7735 8.6132 42.394C8.092 42.0144 7.69475 41.4891 7.47149 40.8843C7.24822 40.2794 7.20891 39.622 7.35852 38.9948L10.0998 27.4262L1.13493 19.6905C0.647432 19.2692 0.294869 18.7136 0.121265 18.0931C-0.0523394 17.4726 -0.0392901 16.8147 0.158783 16.2015C0.356856 15.5884 0.731174 15.0472 1.23499 14.6455C1.73881 14.2439 2.34979 13.9995 2.99164 13.943L14.7455 12.9948L19.2798 2.02179C19.5252 1.42377 19.9429 0.912242 20.4798 0.552233C21.0167 0.192224 21.6485 0 22.2949 0C22.9414 0 23.5732 0.192224 24.1101 0.552233C24.647 0.912242 25.0647 1.42377 25.3101 2.02179L29.8423 12.9948L41.5963 13.943C42.2394 13.9974 42.8521 14.2404 43.3578 14.6415C43.8634 15.0426 44.2395 15.584 44.4388 16.1979C44.6381 16.8118 44.6518 17.4708 44.4782 18.0925C44.3046 18.7141 43.9515 19.2707 43.4629 19.6925L43.4749 19.6905Z" fill="#FCDA42"/>
</svg>
