<svg width="315" height="197" viewBox="0 0 315 197" fill="none" xmlns="http://www.w3.org/2000/svg">
<path d="M245.334 19.625V176.625C245.334 181.83 243.266 186.822 239.586 190.502C235.906 194.182 230.914 196.25 225.709 196.25H206.084C200.879 196.25 195.887 194.182 192.207 190.502C188.527 186.822 186.459 181.83 186.459 176.625V107.938H127.584V176.625C127.584 181.83 125.516 186.822 121.836 190.502C118.156 194.182 113.164 196.25 107.959 196.25H88.3341C83.1292 196.25 78.1375 194.182 74.4571 190.502C70.7767 186.822 68.7091 181.83 68.7091 176.625V19.625C68.7091 14.4201 70.7767 9.42843 74.4571 5.74803C78.1375 2.06763 83.1292 0 88.3341 0H107.959C113.164 0 118.156 2.06763 121.836 5.74803C125.516 9.42843 127.584 14.4201 127.584 19.625V88.3125H186.459V19.625C186.459 14.4201 188.527 9.42843 192.207 5.74803C195.887 2.06763 200.879 0 206.084 0H225.709C230.914 0 235.906 2.06763 239.586 5.74803C243.266 9.42843 245.334 14.4201 245.334 19.625ZM44.1778 29.4375H39.2716C34.0667 29.4375 29.075 31.5051 25.3946 35.1855C21.7142 38.8659 19.6466 43.8576 19.6466 49.0625V88.3125H10.1652C7.62951 88.275 5.17367 89.1992 3.29174 90.8991C1.40981 92.599 0.2414 94.9485 0.0215599 97.4749C-0.0675612 98.8171 0.120242 100.163 0.573305 101.43C1.02637 102.697 1.73501 103.856 2.65523 104.838C3.57544 105.819 4.68756 106.6 5.92252 107.134C7.15747 107.667 8.48889 107.94 9.83406 107.938H19.6466V147.188C19.6466 152.392 21.7142 157.384 25.3946 161.064C29.075 164.745 34.0667 166.812 39.2716 166.812H44.1778C45.479 166.812 46.727 166.296 47.6471 165.376C48.5672 164.455 49.0841 163.207 49.0841 161.906V34.3438C49.0841 33.0425 48.5672 31.7946 47.6471 30.8745C46.727 29.9544 45.479 29.4375 44.1778 29.4375ZM314.022 97.4749C313.802 94.9528 312.637 92.6068 310.76 90.9075C308.884 89.2083 306.434 88.2813 303.902 88.3125H294.397V49.0625C294.397 43.8576 292.329 38.8659 288.649 35.1855C284.968 31.5051 279.976 29.4375 274.772 29.4375H269.865C268.564 29.4375 267.316 29.9544 266.396 30.8745C265.476 31.7946 264.959 33.0425 264.959 34.3438V161.906C264.959 163.207 265.476 164.455 266.396 165.376C267.316 166.296 268.564 166.812 269.865 166.812H274.772C279.976 166.812 284.968 164.745 288.649 161.064C292.329 157.384 294.397 152.392 294.397 147.188V107.938H304.209C305.554 107.94 306.886 107.667 308.121 107.134C309.356 106.6 310.468 105.819 311.388 104.838C312.308 103.856 313.017 102.697 313.47 101.43C313.923 100.163 314.111 98.8171 314.022 97.4749Z" fill="#FFB800"/>
</svg>
