<svg width="295" height="236" viewBox="0 0 295 236" fill="none" xmlns="http://www.w3.org/2000/svg">
<path d="M137.375 53.9687V191.344C137.375 192.645 136.858 193.893 135.938 194.813C135.018 195.733 133.77 196.25 132.469 196.25H107.938V215.875H127.231C129.763 215.844 132.213 216.771 134.089 218.47C135.966 220.169 137.131 222.515 137.35 225.037C137.44 226.38 137.252 227.726 136.799 228.992C136.346 230.259 135.637 231.419 134.717 232.4C133.797 233.381 132.684 234.163 131.45 234.696C130.215 235.229 128.883 235.503 127.538 235.5H69.0187C66.4829 235.537 64.0271 234.613 62.1452 232.913C60.2632 231.213 59.0948 228.864 58.875 226.338C58.7859 224.995 58.9737 223.649 59.4267 222.383C59.8798 221.116 60.5885 219.956 61.5087 218.975C62.4289 217.994 63.541 217.212 64.776 216.679C66.0109 216.146 67.3423 215.872 68.6875 215.875H88.3125V196.25H29.4375C21.6302 196.25 14.1426 193.149 8.62204 187.628C3.10144 182.107 0 174.62 0 166.812V78.5C0 70.6927 3.10144 63.2051 8.62204 57.6845C14.1426 52.1639 21.6302 49.0625 29.4375 49.0625H132.469C133.77 49.0625 135.018 49.5794 135.938 50.4995C136.858 51.4196 137.375 52.6675 137.375 53.9687ZM294.375 19.625V215.875C294.375 221.08 292.307 226.072 288.627 229.752C284.947 233.432 279.955 235.5 274.75 235.5H176.625C171.42 235.5 166.428 233.432 162.748 229.752C159.068 226.072 157 221.08 157 215.875V19.625C157 14.4201 159.068 9.42843 162.748 5.74803C166.428 2.06763 171.42 0 176.625 0H274.75C279.955 0 284.947 2.06763 288.627 5.74803C292.307 9.42843 294.375 14.4201 294.375 19.625ZM240.284 183.457C240.686 180.408 240.123 177.31 238.674 174.598C237.225 171.886 234.963 169.695 232.206 168.334C229.448 166.973 226.334 166.51 223.299 167.01C220.265 167.51 217.464 168.947 215.288 171.12C213.113 173.294 211.673 176.094 211.17 179.127C210.668 182.161 211.128 185.276 212.486 188.035C213.844 190.793 216.033 193.057 218.744 194.509C221.454 195.96 224.552 196.526 227.601 196.127C230.815 195.707 233.801 194.237 236.094 191.946C238.387 189.655 239.86 186.671 240.284 183.457ZM264.938 87.6624C264.718 85.136 263.549 82.7865 261.667 81.0866C259.785 79.3867 257.33 78.4625 254.794 78.5H196.581C194.05 78.4688 191.6 79.3958 189.723 81.095C187.847 82.7943 186.682 85.1402 186.462 87.6624C186.373 89.0046 186.561 90.3508 187.014 91.6174C187.467 92.884 188.175 94.0439 189.096 95.0251C190.016 96.0063 191.128 96.7878 192.363 97.321C193.598 97.8543 194.929 98.1279 196.275 98.125H255.15C256.493 98.1246 257.821 97.8484 259.053 97.3137C260.285 96.7789 261.395 95.9969 262.312 95.0161C263.23 94.0353 263.936 92.8766 264.388 91.6116C264.839 90.3467 265.026 89.0026 264.938 87.6624ZM264.938 48.4124C264.718 45.886 263.549 43.5365 261.667 41.8366C259.785 40.1367 257.33 39.2125 254.794 39.25H196.581C194.045 39.2125 191.59 40.1367 189.708 41.8366C187.826 43.5365 186.657 45.886 186.438 48.4124C186.348 49.7546 186.536 51.1008 186.989 52.3674C187.442 53.634 188.151 54.7939 189.071 55.7751C189.991 56.7563 191.104 57.5378 192.338 58.071C193.573 58.6043 194.905 58.8779 196.25 58.875H255.125C256.47 58.8779 257.802 58.6043 259.037 58.071C260.271 57.5378 261.384 56.7563 262.304 55.7751C263.224 54.7939 263.933 53.634 264.386 52.3674C264.839 51.1008 265.027 49.7546 264.938 48.4124Z" fill="#FFB800"/>
</svg>
