<svg width="256" height="246" viewBox="0 0 256 246" fill="none" xmlns="http://www.w3.org/2000/svg">
<path d="M245.312 98.0499H235.046C232.581 71.248 220.191 46.3342 200.306 28.195C180.422 10.0558 154.478 0 127.562 0C100.647 0 74.7034 10.0558 54.8189 28.195C34.9344 46.3342 22.5444 71.248 20.0788 98.0499H9.8125C7.21006 98.0499 4.71421 99.0837 2.87401 100.924C1.03381 102.764 0 105.26 0 107.862C0.0431137 131.198 6.46512 154.078 18.5715 174.027C30.6779 193.977 48.008 210.237 68.6875 221.05V225.612C68.6875 230.817 70.7551 235.809 74.4355 239.489C78.1159 243.17 83.1076 245.237 88.3125 245.237H166.812C172.017 245.237 177.009 243.17 180.689 239.489C184.37 235.809 186.438 230.817 186.438 225.612V221.05C207.117 210.237 224.447 193.977 236.553 174.027C248.66 154.078 255.082 131.198 255.125 107.862C255.125 105.26 254.091 102.764 252.251 100.924C250.411 99.0837 247.915 98.0499 245.312 98.0499ZM183.347 39.457C185.595 41.2969 187.75 43.2389 189.811 45.2832C163.689 54.472 142.103 73.3568 129.525 98.0254H93.3414C99.4743 80.8343 110.765 65.9558 125.672 55.4225C140.578 44.8893 158.373 39.215 176.625 39.1749C178.87 39.1749 181.114 39.2853 183.347 39.457ZM152.241 98.0499C164.138 80.202 182.136 67.3063 202.861 61.7805C209.638 72.803 213.889 85.1893 215.311 98.0499H152.241ZM127.562 19.5499C135.437 19.5551 143.275 20.6153 150.867 22.7022C132.376 27.2892 115.421 36.6695 101.71 49.8978C87.9993 63.126 78.018 79.7347 72.772 98.0499H39.8142C42.2483 76.473 52.5376 56.5464 68.7207 42.0689C84.9038 27.5914 105.849 19.5757 127.562 19.5499Z" fill="#FFB800"/>
</svg>
