<svg width="142" height="142" viewBox="0 0 142 142" fill="none" xmlns="http://www.w3.org/2000/svg">
<path d="M87.7806 82.7416L103.483 90.5797C102.738 94.2991 100.727 97.6451 97.791 100.047C94.8553 102.449 91.1774 103.757 87.3846 103.75C74.3526 103.736 61.8586 98.5518 52.6436 89.3359C43.4286 80.12 38.2452 67.6247 38.2308 54.5915C38.2297 50.803 39.5413 47.1312 41.9423 44.2009C44.3433 41.2706 47.6854 39.2629 51.3999 38.5194L59.2372 54.2228L52.5673 64.1501C52.0689 64.8978 51.7626 65.757 51.6757 66.6514C51.5888 67.5458 51.7238 68.4479 52.0689 69.2776C55.9766 78.5658 63.3649 85.9548 72.6521 89.8628C73.4843 90.2232 74.3931 90.3708 75.2965 90.2921C76.2 90.2134 77.0696 89.911 77.8269 89.4121L87.7806 82.7416ZM142 70.9777C142.003 83.2368 138.832 95.2878 132.796 105.958C126.76 116.628 118.064 125.553 107.556 131.865C97.0478 138.177 85.0845 141.66 72.8306 141.976C60.5767 142.292 48.4497 139.43 37.63 133.669L14.3843 141.418C12.4597 142.06 10.3944 142.153 8.41983 141.687C6.44526 141.221 4.63949 140.214 3.20491 138.779C1.77032 137.345 0.763622 135.539 0.297637 133.564C-0.168349 131.589 -0.0752031 129.524 0.566633 127.599L8.31519 104.351C3.25063 94.828 0.421884 84.2764 0.0436741 73.4969C-0.334536 62.7174 1.74773 51.9934 6.13242 42.1389C10.5171 32.2844 17.089 23.5584 25.3492 16.6233C33.6094 9.68814 43.3408 4.72613 53.8048 2.11388C64.2688 -0.498362 75.1904 -0.692177 85.7404 1.54715C96.2905 3.78647 106.192 8.40008 114.693 15.0378C123.194 21.6755 130.071 30.1628 134.803 39.8555C139.534 49.5482 141.996 60.1916 142 70.9777ZM114.692 87.3639C114.693 86.3491 114.411 85.3543 113.878 84.4908C113.345 83.6273 112.582 82.9294 111.675 82.4753L89.8287 71.5512C88.9687 71.1226 88.011 70.9285 87.0521 70.9885C86.0931 71.0484 85.167 71.3603 84.3671 71.8926L74.3384 78.5836C69.7346 76.0526 65.9461 72.2636 63.4153 67.6595L70.1057 57.6298C70.6379 56.8298 70.9498 55.9036 71.0097 54.9446C71.0696 53.9856 70.8755 53.0277 70.447 52.1677L59.5239 30.3195C59.0712 29.405 58.3714 28.6358 57.5038 28.0988C56.6363 27.5618 55.6357 27.2785 54.6154 27.2812C47.3729 27.2812 40.4271 30.1585 35.3059 35.2802C30.1847 40.4019 27.3077 47.3484 27.3077 54.5915C27.3258 70.5209 33.6611 85.7926 44.9238 97.0564C56.1865 108.32 71.4568 114.656 87.3846 114.674C90.9707 114.674 94.5217 113.968 97.8348 112.595C101.148 111.223 104.158 109.211 106.694 106.675C109.23 104.139 111.241 101.129 112.614 97.8151C113.986 94.5016 114.692 90.9503 114.692 87.3639Z" fill="#58F15B"/>
</svg>
